<mxfile host="app.diagrams.net" modified="2020-11-04T01:44:48.558Z" agent="5.0 (Windows NT 6.1; Win64; x64) AppleWebKit/537.36 (KHTML, like Gecko) Chrome/86.0.4240.111 Safari/537.36" etag="HZT802ABM6D6hCi0ju0A" version="13.8.1" type="github">
  <diagram id="swVXbsuPCPqnE3vRxEVa" name="第 1 页">
    <mxGraphModel dx="1102" dy="582" grid="1" gridSize="10" guides="1" tooltips="1" connect="1" arrows="1" fold="1" page="1" pageScale="1" pageWidth="827" pageHeight="1169" math="0" shadow="0">
      <root>
        <mxCell id="0" />
        <mxCell id="1" parent="0" />
        <mxCell id="g8vf9iub0wVyyqEF2Qrz-1" value="虚拟运行时间 vruntime += 实际运行时间 delta_exec * NICE_0_LOAD / 权重" style="rounded=1;whiteSpace=wrap;html=1;fontSize=16;fillColor=#fff2cc;fontStyle=1;gradientColor=#ffd966;strokeColor=none;" vertex="1" parent="1">
          <mxGeometry x="150" y="210" width="560" height="80" as="geometry" />
        </mxCell>
      </root>
    </mxGraphModel>
  </diagram>
</mxfile>
